<?xml version="1.0" standalone="no"?>
<!DOCTYPE svg PUBLIC "-//W3C//DTD SVG 20010904//EN"
 "http://www.w3.org/TR/2001/REC-SVG-20010904/DTD/svg10.dtd">
<svg version="1.0" xmlns="http://www.w3.org/2000/svg"
 width="80.000000pt" height="80.000000pt" viewBox="0 0 80.000000 80.000000"
 preserveAspectRatio="xMidYMid meet">

<g transform="translate(0.000000,80.000000) scale(0.100000,-0.100000)"
fill="#000000" stroke="none">
<path d="M0 490 l0 -310 113 1 c131 1 157 7 168 36 6 17 4 23 -12 28 -10 4
-19 10 -19 15 0 4 -10 10 -22 14 -13 3 -29 19 -37 36 -7 17 -16 29 -19 26 -2
-3 1 -13 9 -22 12 -15 12 -17 -1 -12 -22 7 -69 78 -76 116 -6 31 -5 33 12 24
10 -6 27 -13 38 -16 15 -5 16 -9 6 -21 -8 -10 -9 -15 -2 -15 36 0 17 46 -21
52 -35 5 -43 46 -19 98 24 54 59 87 130 126 41 22 54 26 61 16 4 -7 21 -16 37
-21 46 -12 41 -35 -11 -50 -25 -7 -44 -16 -41 -18 7 -8 80 20 93 35 17 21 63
-15 94 -72 28 -53 20 -70 -15 -33 -14 15 -31 27 -38 27 -8 0 -6 -5 5 -11 9 -5
28 -21 42 -35 23 -23 28 -24 175 -24 l150 0 0 160 0 160 -400 0 -400 0 0 -310z"/>
<path d="M236 601 c-4 -5 3 -7 14 -4 23 6 26 13 6 13 -8 0 -17 -4 -20 -9z"/>
<path d="M170 581 c0 -5 -3 -16 -6 -25 -4 -11 1 -15 25 -14 16 1 41 -6 54 -15
16 -10 28 -12 38 -5 12 8 12 9 -1 5 -8 -2 -22 2 -31 10 -10 8 -30 15 -47 15
-23 1 -28 5 -25 19 3 11 3 19 -1 19 -3 0 -6 -4 -6 -9z"/>
<path d="M131 523 c0 -12 -5 -25 -11 -28 -5 -3 -10 -11 -10 -18 0 -6 7 -1 16
11 8 12 13 30 11 40 -4 13 -5 12 -6 -5z"/>
<path d="M297 511 c-5 -20 -10 -23 -37 -17 -28 5 -31 3 -28 -15 2 -12 12 -27
23 -33 18 -10 18 -10 3 3 -26 20 -23 39 5 34 25 -5 52 18 45 39 -3 7 -7 2 -11
-11z"/>
<path d="M377 523 c-4 -3 0 -14 9 -24 13 -15 14 -24 5 -50 -6 -18 -9 -34 -7
-36 2 -3 9 12 16 32 10 31 9 39 -4 54 -9 10 -13 21 -9 24 3 4 4 7 1 7 -2 0 -8
-3 -11 -7z"/>
<path d="M506 438 c-3 -7 -7 -26 -11 -43 -8 -34 -81 -109 -97 -99 -7 4 -8 2
-4 -4 8 -13 -32 -32 -68 -32 -17 0 -22 -6 -24 -29 -1 -20 3 -31 15 -36 48 -18
144 -24 305 -18 l178 6 0 134 0 133 -145 0 c-108 0 -147 -3 -149 -12z m115
-64 c6 -8 8 -25 5 -39 -9 -35 -62 -36 -78 -1 -6 14 -8 31 -5 40 7 18 63 18 78
0z m-51 -89 c0 -12 -15 -15 -75 -15 -60 0 -75 3 -75 15 0 12 15 15 75 15 60 0
75 -3 75 -15z m150 -6 c0 -11 5 -17 10 -14 6 3 10 -3 10 -14 0 -19 -6 -21 -76
-21 -71 0 -76 1 -71 20 3 11 1 20 -4 20 -5 0 -9 7 -9 15 0 12 14 15 70 15 64
0 70 -2 70 -21z m-140 -34 c0 -8 -4 -15 -8 -15 -5 0 -8 -10 -8 -22 1 -22 -4
-23 -71 -26 -72 -3 -73 -3 -73 23 0 20 5 25 25 25 16 0 25 6 25 15 0 12 13 15
55 15 42 0 55 -3 55 -15z"/>
<path d="M312 403 c14 -16 28 -35 31 -43 5 -13 6 -13 6 0 1 15 -44 70 -56 70
-4 0 5 -12 19 -27z"/>
<path d="M372 378 c3 -15 0 -29 -6 -32 -6 -2 -3 -5 7 -5 14 -1 16 4 11 27 -9
36 -18 44 -12 10z"/>
<path d="M150 371 c0 -5 7 -12 16 -15 14 -5 15 -4 4 9 -14 17 -20 19 -20 6z"/>
<path d="M276 281 c-4 -5 3 -7 14 -4 23 6 26 13 6 13 -8 0 -17 -4 -20 -9z"/>
<path d="M258 173 c17 -2 47 -2 65 0 17 2 3 4 -33 4 -36 0 -50 -2 -32 -4z"/>
<path d="M188 153 l192 -3 0 -65 0 -65 -193 -3 -192 -2 198 -3 197 -2 0 75 0
75 -197 -2 -198 -3 193 -2z"/>
<path d="M410 85 l0 -75 198 2 197 3 -192 2 -193 3 0 65 0 65 193 3 192 2
-197 3 -198 2 0 -75z"/>
<path d="M95 90 c-3 -5 0 -13 8 -16 23 -9 112 0 110 11 -4 14 -110 19 -118 5z
m93 -7 c-16 -2 -40 -2 -55 0 -16 2 -3 4 27 4 30 0 43 -2 28 -4z"/>
<path d="M585 90 c-3 -5 0 -13 8 -16 23 -9 112 0 110 11 -4 14 -110 19 -118 5z
m93 -7 c-16 -2 -40 -2 -55 0 -16 2 -3 4 27 4 30 0 43 -2 28 -4z"/>
</g>
</svg>
